<?xml version="1.0" encoding="UTF-8"?>
<svg width="800" height="600" viewBox="0 0 800 600" version="1.1" xmlns="http://www.w3.org/2000/svg">
    <path d="M400 150 C 350 150, 300 160, 250 180 
             C 200 200, 180 230, 170 260
             C 160 290, 155 320, 155 350
             L 155 400
             L 645 400
             L 645 350
             C 645 320, 640 290, 630 260
             C 620 230, 600 200, 550 180
             C 500 160, 450 150, 400 150
             M 170 300
             L 170 350
             L 200 350
             L 200 300
             L 170 300
             M 600 300
             L 600 350
             L 630 350
             L 630 300
             L 600 300" 
          fill="#333333"/>
</svg> 