<?xml version="1.0" standalone="no"?>
<!DOCTYPE svg PUBLIC "-//W3C//DTD SVG 20010904//EN"
 "http://www.w3.org/TR/2001/REC-SVG-20010904/DTD/svg10.dtd">
<svg version="1.0" xmlns="http://www.w3.org/2000/svg"
 width="558.000000pt" height="558.000000pt" viewBox="0 0 558.000000 558.000000"
 preserveAspectRatio="xMidYMid meet">

<g transform="translate(0.000000,558.000000) scale(0.100000,-0.100000)"
fill="#000000" stroke="none">
<path d="M4695 4127 c-88 -23 -253 -121 -268 -160 -7 -18 -597 -310 -709 -351
-54 -20 -128 -43 -165 -51 -90 -20 -470 -37 -1653 -75 -421 -14 -933 -38
-1085 -51 -319 -27 -507 -99 -596 -229 -41 -60 -83 -186 -99 -295 -5 -41 -10
-381 -10 -814 l0 -743 -25 -20 c-34 -27 -73 -95 -80 -143 -16 -100 55 -540
103 -634 36 -72 83 -98 150 -85 38 7 52 17 78 51 40 52 55 105 90 303 18 107
27 194 28 280 1 122 0 126 -28 171 -16 25 -42 55 -58 65 l-28 19 0 248 c0 136
2 247 5 247 3 0 38 -66 77 -147 38 -82 108 -219 155 -306 l85 -159 -3 -466 -3
-467 27 -125 c23 -106 32 -130 57 -155 l30 -30 185 -3 c209 -4 239 3 271 63
18 33 18 38 -1 162 -23 158 -21 119 -11 367 l8 208 47 52 c65 73 159 190 215
268 26 37 52 70 57 74 5 3 37 -6 72 -20 186 -74 500 -57 917 49 96 25 223 60
282 79 78 24 110 30 117 22 5 -6 20 -67 34 -136 26 -122 26 -135 26 -512 1
-227 5 -416 11 -455 17 -105 38 -168 66 -194 25 -23 31 -24 211 -27 277 -5
283 0 283 207 0 80 11 233 25 365 l26 229 53 81 c98 148 153 275 195 450 l26
108 90 2 c70 1 99 6 130 23 80 43 123 90 169 187 50 104 66 167 96 386 12 85
30 191 40 236 58 247 164 410 314 484 64 32 72 33 273 46 175 11 220 17 281
38 92 32 132 56 176 108 71 83 85 216 36 323 -34 72 -172 205 -313 300 -327
222 -448 308 -444 318 2 7 35 14 79 17 87 7 123 25 144 77 18 42 6 88 -32 124
-22 20 -37 24 -102 26 -42 1 -99 -3 -127 -10z m18 -510 c83 -57 215 -146 292
-198 322 -217 371 -324 169 -369 -27 -6 -128 -15 -224 -20 -148 -7 -187 -13
-249 -34 -190 -66 -312 -183 -417 -401 -66 -136 -107 -292 -135 -510 -11 -88
-27 -187 -35 -220 -19 -79 -62 -163 -97 -189 -26 -19 -30 -19 -70 -6 l-42 15
-11 95 c-6 52 -16 105 -22 117 -39 72 -155 72 -194 0 -7 -14 -12 -92 -13 -227
-1 -186 -4 -214 -27 -300 -36 -132 -95 -263 -164 -365 -32 -48 -64 -97 -71
-108 -13 -25 -62 -459 -66 -582 l-2 -80 -51 -3 c-42 -2 -53 1 -60 15 -5 10
-10 207 -10 438 l-2 420 -35 160 c-19 88 -56 257 -82 375 -25 118 -51 228 -57
243 -28 71 -125 92 -178 38 -16 -16 -32 -40 -35 -54 -4 -14 6 -82 24 -158 18
-82 26 -138 20 -143 -23 -24 -435 -137 -664 -183 -130 -26 -456 -26 -502 0
-18 10 -33 19 -33 22 0 2 15 33 34 67 54 97 105 225 127 313 29 115 39 397 15
446 -29 62 -96 85 -156 54 -52 -27 -60 -58 -60 -223 0 -114 -4 -166 -19 -224
-56 -216 -266 -558 -515 -838 -37 -41 -74 -87 -81 -101 -18 -33 -40 -458 -31
-582 l7 -88 -43 3 -42 3 -13 60 c-9 43 -12 199 -13 545 l0 485 -46 80 c-124
215 -299 587 -384 819 -100 271 -129 431 -111 604 20 192 50 262 130 306 141
76 407 97 1776 141 1140 36 1236 42 1393 80 141 34 285 95 570 241 320 164
295 163 505 21z"/>
</g>
</svg>
